<svg width="100" height="48" viewBox="0 0 100 48" fill="none" xmlns="http://www.w3.org/2000/svg">
<g clip-path="url(#clip0_351_3894)">
<path d="M29.9998 12C27.6798 12 25.4532 13.08 23.9998 14.7867C22.5465 13.08 20.3198 12 17.9998 12C13.8932 12 10.6665 15.2267 10.6665 19.3333C10.6665 24.3733 15.1998 28.48 22.0665 34.72L23.9998 36.4667L25.9332 34.7067C32.7998 28.48 37.3332 24.3733 37.3332 19.3333C37.3332 15.2267 34.1065 12 29.9998 12ZM24.1332 32.7333L23.9998 32.8667L23.8665 32.7333C17.5198 26.9867 13.3332 23.1867 13.3332 19.3333C13.3332 16.6667 15.3332 14.6667 17.9998 14.6667C20.0532 14.6667 22.0532 15.9867 22.7598 17.8133H25.2532C25.9465 15.9867 27.9465 14.6667 29.9998 14.6667C32.6665 14.6667 34.6665 16.6667 34.6665 19.3333C34.6665 23.1867 30.4798 26.9867 24.1332 32.7333Z" fill="#002F52"/>
</g>
<g clip-path="url(#clip1_351_3894)">
<path d="M84.0002 15.9993H81.3335C81.3335 13.0527 78.9468 10.666 76.0002 10.666C73.0535 10.666 70.6668 13.0527 70.6668 15.9993H68.0002C66.5335 15.9993 65.3335 17.1993 65.3335 18.666V34.666C65.3335 36.1327 66.5335 37.3327 68.0002 37.3327H84.0002C85.4668 37.3327 86.6668 36.1327 86.6668 34.666V18.666C86.6668 17.1993 85.4668 15.9993 84.0002 15.9993ZM76.0002 13.3327C77.4668 13.3327 78.6668 14.5327 78.6668 15.9993H73.3335C73.3335 14.5327 74.5335 13.3327 76.0002 13.3327ZM84.0002 34.666H68.0002V18.666H70.6668V21.3327C70.6668 22.066 71.2668 22.666 72.0002 22.666C72.7335 22.666 73.3335 22.066 73.3335 21.3327V18.666H78.6668V21.3327C78.6668 22.066 79.2668 22.666 80.0002 22.666C80.7335 22.666 81.3335 22.066 81.3335 21.3327V18.666H84.0002V34.666Z" fill="#002F52"/>
</g>
<defs>
<clipPath id="clip0_351_3894">
<rect width="32" height="32" fill="white" transform="translate(8 8)"/>
</clipPath>
<clipPath id="clip1_351_3894">
<rect width="32" height="32" fill="white" transform="translate(60 8)"/>
</clipPath>
</defs>
</svg>
